<svg width="72" height="72" fill="none" xmlns="http://www.w3.org/2000/svg"><g filter="url(#filter0_d)"><circle cx="34" cy="34" r="30" fill="#fff"/><path d="M34.072 20.55c-7.341 0-13.309 5.968-13.311 13.307-.003 2.995.877 5.238 2.351 7.585l-1.343 4.911 5.036-1.322c2.256 1.338 4.41 2.141 7.257 2.144 7.334 0 13.309-5.97 13.311-13.307.002-7.354-5.942-13.315-13.301-13.317zM34 6.309C18.707 6.308 6.308 18.707 6.308 34S18.707 61.692 34 61.692c15.293 0 27.692-12.399 27.692-27.692C61.692 18.707 49.293 6.308 34 6.308zm.067 43.569c-2.68 0-5.32-.674-7.657-1.948l-8.486 2.225 2.271-8.296a15.973 15.973 0 01-2.137-8.003c.003-8.827 7.184-16.009 16.009-16.009A15.903 15.903 0 0145.39 22.54a15.906 15.906 0 014.684 11.326c-.002 8.827-7.184 16.01-16.008 16.01z" fill="#004140"/></g><defs><filter id="filter0_d" x="0" y="0" width="72" height="72" filterUnits="userSpaceOnUse" color-interpolation-filters="sRGB"><feFlood flood-opacity="0" result="BackgroundImageFix"/><feColorMatrix in="SourceAlpha" values="0 0 0 0 0 0 0 0 0 0 0 0 0 0 0 0 0 0 127 0"/><feOffset dx="2" dy="2"/><feGaussianBlur stdDeviation="3"/><feColorMatrix values="0 0 0 0 0 0 0 0 0 0 0 0 0 0 0 0 0 0 0.25 0"/><feBlend in2="BackgroundImageFix" result="effect1_dropShadow"/><feBlend in="SourceGraphic" in2="effect1_dropShadow" result="shape"/></filter></defs></svg>